<svg xmlns="http://www.w3.org/2000/svg" viewBox="0 0 230.4 218.5"><defs><style>.cls-1{fill:#1aa856;}</style></defs><g id="Layer_2" data-name="Layer 2"><g id="Layer_1-2" data-name="Layer 1"><path class="cls-1" d="M189.1,130.9c-4.1,9.5-13.1,16.9-26.9,21.9V140.2c8.4-3.6,13.7-8.3,16.1-13.9a18.3,18.3,0,0,0,1.3-10c-11.4,8.5-34,31.4-36.7,79.7l-.2,2.7-27.5,19.8L87.7,198.7V196c-2.7-48.3-25.4-71.2-36.7-79.7a19.1,19.1,0,0,0,1.2,10c2.4,5.6,7.8,10.3,16.1,13.9v12.6c-13.7-5-22.8-12.4-26.8-21.9-4.7-11.1-1.3-21.3.4-25.2a6.8,6.8,0,0,1,9.6-3.1c7.2,4.2,43.2,27.8,47.6,89.9l16.2,11.6,16.2-11.6c4.5-62.1,40.4-85.7,47.7-89.9a6.8,6.8,0,0,1,5.4-.6,7,7,0,0,1,4.1,3.8C190.3,109.6,193.8,119.8,189.1,130.9Z"/><path class="cls-1" d="M81.4,109.5C75.5,100,63.8,93.5,39,80.4S10.5,58.1,10.5,58.1C3.9,45.5.7,16.3,0,4.6A4.3,4.3,0,0,1,4.3,0h0A4.3,4.3,0,0,1,8.6,4.7c-.3,4.4-.6,11,0,15.1l9.5-6.2a2.8,2.8,0,0,1,4,3.8c-3.6,6.2-7.5,13.7-8.5,17.9-1.8,8.3,6.3,24.3,14.9,26.1,0,0,5.5,3.2.6-21.7a2.9,2.9,0,0,1,2.6-3.4h.4a3.8,3.8,0,0,1,4.1,2.9,152.3,152.3,0,0,1,3.5,28.2,5,5,0,0,0,2.1,4c6.2,4.4,24.8,17,30.6,15.3a36.5,36.5,0,0,1,5-7,2.7,2.7,0,0,1,4.7,2.4,32.9,32.9,0,0,0-.6,8.8,210.7,210.7,0,0,1,14,19.4c6.1,9.8,11,10.8,19.7,10.9v11.1s-9.9-.5-28.3-16.7a39.9,39.9,0,0,1-5.5-6.1Z"/><path class="cls-1" d="M149,109.5c5.9-9.5,17.7-16,42.4-29.1s28.5-22.3,28.5-22.3c6.6-12.6,9.8-41.8,10.5-53.5A4.3,4.3,0,0,0,226.1,0h0a4.4,4.4,0,0,0-4.3,4.7c.3,4.4.7,11,.1,15.1l-9.6-6.2a2.8,2.8,0,0,0-4,3.8c3.6,6.2,7.5,13.7,8.5,17.9,1.9,8.3-6.2,24.3-14.8,26.1,0,0-5.5,3.2-.7-21.7a2.8,2.8,0,0,0-2.6-3.4h-.4a3.7,3.7,0,0,0-4,2.9,142.4,142.4,0,0,0-3.6,28.2,5,5,0,0,1-2.1,4c-6.2,4.4-24.7,17-30.6,15.3a36.5,36.5,0,0,0-5-7,2.7,2.7,0,0,0-4.7,2.4,26.4,26.4,0,0,1,.6,8.8,210.7,210.7,0,0,0-14,19.4c-6,9.8-10.9,10.8-19.7,10.9v11.1s9.9-.5,28.3-16.7a35.3,35.3,0,0,0,5.5-6.1Z"/></g></g></svg>